<?xml version="1.0" standalone="no"?>
<!DOCTYPE svg PUBLIC "-//W3C//DTD SVG 1.1//EN" "http://www.w3.org/Graphics/SVG/1.1/DTD/svg11.dtd" >
<svg xmlns="http://www.w3.org/2000/svg" xmlns:xlink="http://www.w3.org/1999/xlink" version="1.1" viewBox="-10 0 596 512">
   <path fill="currentColor"
d="M528 0c26.5 0 48 21.5 48 48v320c0 26.5 -21.5 48 -48 48h-192l16 48h72c13.25 0 24 10.75 24 24s-10.75 24 -24 24h-272c-13.2002 0 -24 -10.7998 -24 -24s10.7998 -24 24 -24h72l16 -48h-192c-26.5 0 -48 -21.5 -48 -48v-320c0 -26.5 21.5 -48 48 -48h480zM512 352
v-288h-448v288h448z" />
</svg>
